<svg width="91" height="91" viewBox="0 0 91 91" fill="none" xmlns="http://www.w3.org/2000/svg">
<path fill-rule="evenodd" clip-rule="evenodd" d="M52.0738 75.4056C64.9882 72.0678 74.5291 60.3158 74.5291 46.3306C74.5291 43.1523 74.0363 40.0893 73.1232 37.2142L87.1391 23.1674L67.881 3.86697L53.9662 17.8124C51.011 16.8351 47.8524 16.3062 44.5706 16.3062C30.087 16.3062 18.0041 26.6067 15.2172 40.2969L1 90L52.0738 75.4056Z" fill="white"/>
<path fill-rule="evenodd" clip-rule="evenodd" d="M3.8125 90.0159L4.96 88.8684L5.53075 88.7053L52.0738 75.4055C64.9882 72.0677 74.5291 60.3158 74.5291 46.3305C74.5291 43.1522 74.0363 40.0892 73.1232 37.2142L87.1391 23.1674L70.7063 6.69846L67.881 3.86691L65.0557 6.69846L53.9662 17.8124C51.011 16.835 47.8524 16.3062 44.5706 16.3062C30.087 16.3062 18.004 26.6067 15.2172 40.2969L2.29588 85.4695L2.13319 86.0383L0.98407 87.1874L1.62201 87.8254L0.999996 89.9999L3.17505 89.3784L3.8125 90.0159ZM35.2731 52.8984L7.96046 80.2111L19.0629 41.3969L19.1057 41.2473L19.1368 41.0948C21.5531 29.225 32.0321 20.3062 44.5706 20.3062C47.4202 20.3062 50.1551 20.765 52.7102 21.6101L55.054 22.3852L56.7977 20.6377L67.881 9.53L81.4885 23.1674L70.2916 34.3889L68.5753 36.109L69.3108 38.425C70.1011 40.9131 70.5291 43.5678 70.5291 46.3305C70.5291 58.4533 62.2596 68.6415 51.0729 71.5328L51.0237 71.5455L50.9748 71.5594L10.7845 83.0439L38.1015 55.7269C39.3789 56.5049 40.8793 56.9531 42.4844 56.9531C47.1443 56.9531 50.9219 53.1755 50.9219 48.5156C50.9219 43.8557 47.1443 40.0781 42.4844 40.0781C37.8245 40.0781 34.0469 43.8557 34.0469 48.5156C34.0469 50.1206 34.495 51.621 35.2731 52.8984Z" fill="black"/>
</svg>
