<svg width="754" height="121" viewBox="0 0 754 121" fill="none" xmlns="http://www.w3.org/2000/svg">
<path d="M24.25 69.5627C116.125 69.5627 208 69.5627 299.875 69.5627C306.691 69.5627 307.317 69.1905 307.186 76.1426C307.066 82.5044 305.541 88.6745 305.541 95.0599C305.541 97.5519 306.897 95.362 307.917 94.146C315.497 85.1081 323.804 77.1187 332.957 69.6541C354.742 51.8875 379.188 36.2803 406.25 27.9814C414.329 25.5039 428.409 22.5736 436.956 25.4226C444.802 28.0377 440.429 64.1857 440.429 72.3044C440.429 74.7388 438.826 85.717 440.794 87.2919C442.358 88.5431 477.816 63.2736 480.457 61.7034C501.159 49.3938 574.032 7.17207 577.784 55.946C578.572 66.1891 578.607 76.3902 578.607 86.6522C578.607 96.9799 619.425 72.3978 620.736 71.756C650.454 57.2102 677.524 46.1222 710.662 44.9795C717.183 44.7546 723.73 44.4614 729.944 46.5331" stroke="#699BF7" stroke-width="48" stroke-linecap="round" stroke-linejoin="round"/>
<path d="M24.25 69.5627C53.6577 69.5627 305.661 63.2923 305.541 69.6541C305.421 76.0159 305.541 88.6745 305.541 95.0599C305.541 97.5519 306.897 95.362 307.917 94.146C315.497 85.1081 323.804 77.1187 332.957 69.6541C354.742 51.8875 379.188 36.2803 406.25 27.9814C414.329 25.5039 428.409 22.5736 436.956 25.4226C444.802 28.0377 440.429 64.1857 440.429 72.3044C440.429 74.7388 438.826 85.717 440.794 87.2919C442.358 88.5431 477.816 63.2736 480.457 61.7034C501.159 49.3938 574.032 7.17207 577.784 55.946C578.572 66.1891 578.607 76.3902 578.607 86.6522C578.607 96.9799 619.425 72.3978 620.736 71.756C650.454 57.2102 677.524 46.1222 710.662 44.9795C717.183 44.7546 723.73 44.4614 729.944 46.5331" stroke="black" stroke-width="4" stroke-linecap="round" stroke-linejoin="round"/>
<circle cx="729.75" cy="46" r="8" fill="white" stroke="black" stroke-width="4"/>
<circle cx="581.25" cy="85.75" r="8" fill="white" stroke="black" stroke-width="4"/>
<circle cx="540.75" cy="35.25" r="8" fill="white" stroke="black" stroke-width="4"/>
<circle cx="439.5" cy="89.5" r="8" fill="white" stroke="black" stroke-width="4"/>
<circle cx="433.5" cy="24.25" r="8" fill="white" stroke="black" stroke-width="4"/>
<circle cx="305.875" cy="91.375" r="6.375" fill="white" stroke="black" stroke-width="3.75"/>
<circle cx="305.875" cy="59.875" r="6.375" fill="white" stroke="black" stroke-width="3.75"/>
</svg>
