<svg width="140" height="258" viewBox="0 0 140 258" fill="none" xmlns="http://www.w3.org/2000/svg">
<path d="M2.1581 3.72469C0.567827 4.18966 -0.344414 5.85576 0.120555 7.44604C0.585523 9.03631 2.25163 9.94855 3.8419 9.48358L2.1581 3.72469ZM103.918 256.199C104.58 257.717 106.348 258.412 107.867 257.75L132.618 246.963C134.137 246.301 134.832 244.533 134.17 243.014C133.508 241.495 131.74 240.801 130.221 241.463L108.22 251.051L98.6314 229.05C97.9694 227.531 96.2015 226.836 94.6826 227.498C93.1638 228.16 92.4691 229.928 93.131 231.447L103.918 256.199ZM3.8419 9.48358C30.9916 1.54547 78.4313 5.42766 107.825 39.3635C137.077 73.1363 149.457 137.902 103.876 253.903L109.46 256.097C155.327 139.371 143.827 71.7653 112.36 35.4353C81.0343 -0.73157 30.9162 -4.68367 2.1581 3.72469L3.8419 9.48358Z" fill="black"/>
</svg>
